<svg width="252" height="84" viewBox="0 0 252 84" fill="none" xmlns="http://www.w3.org/2000/svg">
<path fill-rule="evenodd" clip-rule="evenodd" d="M42.0001 8.37866L4.43945 45.9393L6.56077 48.0606L14.0001 40.6213V78H10.0001V81H75.0001V78H70.0001V40.6213L77.4395 48.0606L79.5608 45.9393L70.0001 36.3787V8.99998H56.0001V22.3787L42.0001 8.37866ZM59.0001 25.3787L67.0001 33.3787V12H59.0001V25.3787ZM67.0001 37.6213L42.0001 12.6213L17.0001 37.6213V78H67.0001V37.6213ZM34 50V74H50V50H34ZM37 71V53H47V71H37ZM21 50H24V54H21V50ZM30 50H27V54H30V50ZM21 56H24V60H21V56ZM30 56H27V60H30V56ZM54 50H57V54H54V50ZM63 50H60V54H63V50ZM54 56H57V60H54V56ZM63 56H60V60H63V56ZM37 36C37 33.2386 39.2386 31 42 31C44.7614 31 47 33.2386 47 36C47 38.7614 44.7614 41 42 41C39.2386 41 37 38.7614 37 36ZM42 28C37.5817 28 34 31.5817 34 36C34 40.4183 37.5817 44 42 44C46.4183 44 50 40.4183 50 36C50 31.5817 46.4183 28 42 28Z" fill="black"/>
<path d="M158.9 57.7H148.3H103.6H93.1C90.8 57.7 89 59.6 89 62V65.5C89 67.9 90.9 69.7999 93.1 69.7999H94V70.9C94 76.4 98.3 81 103.6 81H148.2C153.5 81 157.8 76.5 157.8 70.9V69.7999H158.7C161 69.7999 162.8 67.9 162.8 65.5V62C163 59.7 161.1 57.7 158.9 57.7ZM155 70.9C155 74.8 152 77.9 148.3 77.9H103.6C99.9 77.9 96.9 74.7 96.9 70.9V69.7999H155V70.9ZM160.1 65.5C160.1 66.2 159.5 66.7999 158.9 66.7999H157.9H155H97H94H93C92.3 66.7999 91.8 66.2 91.8 65.5V62C91.8 61.3 92.4 60.7 93 60.7H96.7H103.6H148.2H155.1H158.8C159.5 60.7 160 61.3 160 62C160.1 62 160.1 65.5 160.1 65.5Z" fill="black"/>
<path d="M104.6 49.4001L110 53.5001L115.3 49.4001L120.6 53.5001L125.9 49.4001L131.3 53.5001L136.6 49.4001L141.9 53.5001L147.3 49.4001L152.6 53.5001L158.8 48.8001L157.1 46.3001L152.6 49.7001L147.3 45.6001L141.9 49.7001L136.6 45.6001L131.3 49.7001L125.9 45.6001L120.6 49.7001L115.3 45.6001L110 49.7001L104.6 45.6001L99.3001 49.7001L94.8001 46.3001L93.1001 48.8001L99.3001 53.5001L104.6 49.4001Z" fill="black"/>
<path d="M97 42.5H154.9H157.8C157.8 41.9 157.9 41.3 157.9 40.6C157.9 40.2 157.9 39.8 157.9 39.4C157.2 23.7 143.2 11 126 11C108.7 11 94.7 23.7 94 39.5C94 39.9 94 40.3 94 40.7C94 41.3 94 41.9 94.1 42.5H97ZM126 14C141.6 14 154.4 25.3 155 39.5H97C97.6 25.4 110.4 14 126 14Z" fill="black"/>
<path d="M126 28.3C127.049 28.3 127.9 27.4046 127.9 26.3C127.9 25.1955 127.049 24.3 126 24.3C124.951 24.3 124.1 25.1955 124.1 26.3C124.1 27.4046 124.951 28.3 126 28.3Z" fill="black"/>
<path d="M118.2 23.2C119.249 23.2 120.1 22.3045 120.1 21.2C120.1 20.0954 119.249 19.2 118.2 19.2C117.151 19.2 116.3 20.0954 116.3 21.2C116.3 22.3045 117.151 23.2 118.2 23.2Z" fill="black"/>
<path d="M133.7 23.2C134.749 23.2 135.6 22.3045 135.6 21.2C135.6 20.0954 134.749 19.2 133.7 19.2C132.651 19.2 131.8 20.0954 131.8 21.2C131.8 22.3045 132.651 23.2 133.7 23.2Z" fill="black"/>
<path d="M239.1 27.5H239H214.3C228.1 20.6 229.2 16.2 228.7 13.8C227.5 9.79997 223 6.79997 218.7 8.39997C213.1 10.5 211.6 18.8 210.1 24.8C208.1 18.7 206.3 11 201.9 7.09997C200.6 5.99997 198.8 4.79997 196.1 5.09997C192.1 5.49997 186.3 10.5 188.6 16.1C190.9 21.5 198.3 24.9 203.2 27.6H181.2H180.9C179.3 27.6 178 28.9 178 30.5V41.8C178 43.4 179.3 44.7 180.9 44.7H181.2V78V80.4V81H239V80.5V78V44.6H239.1C240.7 44.6 242 43.3 242 41.7V30.4C242 28.8 240.7 27.5 239.1 27.5ZM220.4 10.9C222.5 10.6 225.4 12.2 225.7 14.1C226.1 16.9 222.3 19.4 220.6 20.5C218.1 22.2 215.7 23.1 213.3 24.6C214.2 20.9 215.8 11.6 220.4 10.9ZM197.5 20.9C195.3 19.4 191 16.5 191.1 13.1C191.2 9.49997 196.8 6.49997 199.9 9.19997C203.8 12.6 205.6 20.3 207 25.8C203.8 24.3 200.7 23 197.5 20.9ZM203.5 78H184.1V44.6H203.5V78ZM203.5 41.5H181V30.5H203.5V41.5ZM213.7 41.5V44.5V78H206.5V44.6V41.6V30.6H213.7V41.5ZM236 78H216.6V44.6H236V78ZM238.9 41.5H216.6V30.5H238.9V41.5Z" fill="black"/>
</svg>
