<svg width="225" height="72" viewBox="0 0 225 72" fill="none" xmlns="http://www.w3.org/2000/svg">
  <path d="M30 65H46V41H30V65ZM33 44H43V62H33V44ZM73 39L75 37L65 27V0H51V14L37 0L0 37L2 39L10 32V69H6V72H70V69H65V32L73 39ZM62 69H13V29L37 4L62 29V69ZM62 24L54 17V3H62V24ZM29.8 27.1001C29.8 31.4001 33.3 34.8001 37.6 34.8001C41.9 34.8001 45.4 31.3001 45.4 27.1001C45.4 22.8001 41.9 19.4001 37.6 19.4001C36.5804 19.3868 35.5684 19.5762 34.6226 19.9572C33.6768 20.3383 32.8161 20.9033 32.0905 21.6197C31.3649 22.336 30.7887 23.1893 30.3955 24.1301C30.0023 25.0709 29.7999 26.0804 29.8 27.1001V27.1001ZM37.7 22.1001C39.0089 22.0998 40.2658 22.6128 41.2006 23.529C42.1355 24.4452 42.6738 25.6914 42.7 27.0001C42.6738 28.3087 42.1355 29.555 41.2006 30.4711C40.2658 31.3873 39.0089 31.9003 37.7 31.9001C36.3911 31.9003 35.1342 31.3873 34.1993 30.4711C33.2645 29.555 32.7262 28.3087 32.7 27.0001C32.7262 25.6914 33.2645 24.4452 34.1993 23.529C35.1342 22.6128 36.3911 22.0998 37.7 22.1001ZM20 41H17V45H20V41ZM26 41H23V45H26V41ZM20 47H17V51H20V47ZM26 47H23V51H26V47ZM52 41H49V45H52V41ZM58 41H55V45H58V41ZM52 47H49V51H52V47ZM58 47H55V51H58V47Z" fill="#83B3D3"/>
  <path d="M145.6 47.7H79.6C78.5036 47.7519 77.4711 48.231 76.7235 49.0346C75.9759 49.8383 75.5726 50.9027 75.6 52V55.5C75.6 57.9 77.4 59.8 79.6 59.8H80.6V60.9C80.5709 63.485 81.5441 65.9808 83.3153 67.8638C85.0864 69.7469 87.5181 70.8709 90.1 71H134.8C140.1 71 144.4 66.5 144.4 60.9V59.8H145.3C147.6 59.8 149.4 57.9 149.4 55.5V52C149.441 51.45 149.369 50.8974 149.186 50.377C149.004 49.8565 148.716 49.3793 148.34 48.9755C147.964 48.5717 147.509 48.25 147.003 48.0304C146.497 47.8109 145.952 47.6984 145.4 47.7H145.6ZM141.6 60.9C141.6 64.8 138.6 67.9 135 67.9H90.2C88.3784 67.8479 86.6489 67.0875 85.379 65.7803C84.1092 64.4732 83.3993 62.7223 83.4 60.9V59.8H141.7V60.9H141.6ZM146.8 55.5C146.8 56.2 146.2 56.8 145.6 56.8H79.6C78.8 56.8 78.3 56.2 78.3 55.5V52C78.3 51.3 78.9 50.7 79.5 50.7H145.5C146.2 50.7 146.7 51.3 146.7 52V55.5H146.8ZM91.2 39.4001L96.6 43.5001L101.9 39.4001L107.2 43.5001L112.5 39.4001L117.9 43.5001L123.2 39.4001L128.5 43.5001L134 39.4001L139.3 43.5001L145.5 38.8001L143.8 36.3001L139.3 39.7001L134 35.6001L128.5 39.7001L123.2 35.6001L117.9 39.7001L112.5 35.6001L107.2 39.7001L101.9 35.6001L96.6 39.7001L91.2 35.6001L85.8 39.7001L81.3 36.3001L79.6 38.8001L85.8 43.5001L91.2 39.4001V39.4001ZM83.5 32.5H144.5V29.4C144 13.7 130 1 112.7 1C95.3 1 81.2 13.7 80.6 29.5V32.5H83.6H83.5ZM112.6 4C128.2 4 141.1 15.3 141.6 29.5H83.6C84 15.4 97 4 112.5 4H112.6ZM112.6 18.3C113.13 18.3 113.639 18.0892 114.014 17.7142C114.389 17.3391 114.6 16.8304 114.6 16.3C114.6 15.7695 114.389 15.2608 114.014 14.8857C113.639 14.5107 113.13 14.3 112.6 14.3C112.087 14.3256 111.604 14.5476 111.25 14.92C110.896 15.2923 110.699 15.7864 110.7 16.3C110.7 17.4 111.6 18.3 112.7 18.3H112.6ZM104.8 13.2C105.313 13.1743 105.796 12.9523 106.15 12.58C106.504 12.2076 106.701 11.7135 106.7 11.2C106.7 10.6695 106.489 10.1608 106.114 9.78574C105.739 9.41067 105.23 9.19995 104.7 9.19995C104.205 9.2497 103.746 9.48218 103.413 9.852C103.081 10.2218 102.897 10.7024 102.9 11.2C102.9 12.3 103.7 13.2 104.8 13.2V13.2ZM120.3 13.2C120.83 13.2 121.339 12.9892 121.714 12.6142C122.089 12.2391 122.3 11.7304 122.3 11.2C122.3 10.6695 122.089 10.1608 121.714 9.78574C121.339 9.41067 120.83 9.19995 120.3 9.19995C119.787 9.22563 119.304 9.44762 118.95 9.81995C118.596 10.1923 118.399 10.6864 118.4 11.2C118.4 12.3 119.3 13.2 120.4 13.2H120.3Z" fill="#83B3D3"/>
  <path fill-rule="evenodd" clip-rule="evenodd" d="M216.5 23.0001H192C205.8 16.0001 207 11.6001 206.5 9.20007C205.3 5.20007 200.8 2.20007 196.5 3.80007C191.5 5.70007 189.3 14.4001 187.9 20.2001C186.2 14.7001 183.4 5.80007 179.7 2.50007C178.936 1.76579 178.022 1.20655 177.02 0.86118C176.019 0.51581 174.954 0.392586 173.9 0.500065C169.9 0.900065 164.1 5.90007 166.4 11.5001C168.4 16.3001 176.2 20.4001 181 23.0001H158.5C156.5 23.0001 155.5 24.0001 155.5 26.0001V37.2001C155.5 38.8001 156.9 40.0001 158.5 40.0001H159V72.0001H216V40.0001H216.5C218.5 40.0001 219.5 39.0001 219.5 37.0001V26.0001C219.5 24.0001 218.5 23.0001 216.5 23.0001ZM162 69.0001H181V40.0001H162V69.0001ZM158.5 37.0001H181V26.0001H158.5V37.0001ZM191 69.0001V26.0001H184V69.0001H191ZM194 69.0001H213V40.0001H194V69.0001ZM194.1 37.0001H216.5V26.0001H194L194.1 37.0001ZM203.5 9.50007C203.2 7.50007 200.3 6.00007 198.2 6.30007C194.1 6.90007 192.1 15.8001 191.1 20.0001C192.5 19.3001 197.1 16.8001 198.4 15.9001C200.1 14.8001 203.9 12.3001 203.5 9.50007ZM168.9 8.50007C168.8 11.9001 173.1 14.8001 175.3 16.3001C178 18.0001 182.2 20.0001 184.8 21.2001C183.4 15.8001 181.4 7.80007 177.7 4.60007C174.6 1.90007 169 4.90007 168.9 8.50007V8.50007Z" fill="#83B3D3"/>
</svg>
