<svg width="241" height="20" viewBox="0 0 241 20" fill="none" xmlns="http://www.w3.org/2000/svg">
  <path d="M17 9H11V3H9V9H3V11H9V17H11V11H17V9Z" fill="black"/>
  <path d="M33.1117 9.46875L28.3617 5.21875C28.1117 4.96875 27.6117 4.96875 27.2367 5.21875C26.8617 5.46875 26.9867 5.96875 27.2367 6.21875L31.3617 9.96875L27.3617 13.7187C27.1117 13.9687 27.1117 14.4687 27.3617 14.7188C27.3617 14.8438 27.7367 14.9687 27.8617 14.9687C27.9867 14.9687 28.2367 14.8438 28.3617 14.7188L33.1117 10.4687C33.4867 10.2187 33.4867 9.71875 33.1117 9.46875Z" fill="black"/>
  <path d="M43.3928 9V11H57.3928V9H43.3928Z" fill="black"/>
  <path d="M79.8928 18.0083L76.1928 14.3287C77.1928 13.0359 77.8928 11.3453 77.8928 9.4558C77.8928 5.08011 74.2928 1.5 69.8928 1.5C65.4928 1.5 61.8928 5.17956 61.8928 9.55525C61.8928 13.9309 65.4928 17.511 69.8928 17.511C71.6928 17.511 73.3928 16.9144 74.7928 15.8204L78.4928 19.5L79.8928 18.0083ZM69.8928 15.5221C66.5928 15.5221 63.8928 12.837 63.8928 9.55525C63.8928 6.27348 66.5928 3.5884 69.8928 3.5884C73.1928 3.5884 75.8928 6.27348 75.8928 9.55525C75.8928 12.837 73.1928 15.5221 69.8928 15.5221Z" fill="black"/>
  <path d="M90.2928 19C89.9928 19 89.6928 18.9 89.4928 18.6C84.0928 12.5 82.7928 11.1 82.4928 10.7C81.7928 9.8 81.3928 8.6 81.3928 7.4C81.3928 4.4 83.7928 2 86.8928 2C88.1928 2 89.3928 2.5 90.3928 3.3C91.3928 2.5 92.6928 2 93.8928 2C96.8928 2 99.3928 4.4 99.3928 7.4C99.3928 8.7 98.8928 9.9 98.0928 10.8L91.0928 18.7C90.8928 18.9 90.6928 19 90.2928 19ZM84.2928 9.5C84.5928 9.9 87.7928 13.5 90.3928 16.4L96.5928 9.4C97.0928 8.9 97.2928 8.2 97.2928 7.4C97.2928 5.6 95.7928 4.1 93.9928 4.1C92.9928 4.1 91.9928 4.6 91.2928 5.4C90.9928 5.7 90.6928 5.8 90.3928 5.8C90.0928 5.8 89.7928 5.6 89.5928 5.4C88.8928 4.6 87.8928 4.1 86.8928 4.1C85.0928 4.1 83.5928 5.6 83.5928 7.4C83.4928 8.3 83.8928 9 84.2928 9.5C84.1928 9.5 84.1928 9.5 84.2928 9.5Z" fill="black"/>
  <path d="M108.143 12C108.443 12 108.643 11.8 108.643 11.5C108.643 11.2 108.443 11 108.143 11C107.843 11 107.643 11.2 107.643 11.5C107.643 11.8 107.843 12 108.143 12Z" fill="black"/>
  <path d="M117.393 4H115.393V2H114.393V4H106.393V2H105.393V4H103.393C102.793 4 102.393 4.4 102.393 5V16C102.393 16.5 102.793 17 103.393 17H117.393C117.893 17 118.393 16.5 118.393 16V5C118.393 4.4 117.893 4 117.393 4ZM117.393 16H103.393V9H117.393V16ZM103.393 8V5H105.393V7H106.393V5H114.393V7H115.393V5H117.393V8H103.393Z" fill="black"/>
  <path d="M110.393 12C110.693 12 110.893 11.8 110.893 11.5C110.893 11.2 110.693 11 110.393 11C110.093 11 109.893 11.2 109.893 11.5C109.893 11.8 110.093 12 110.393 12Z" fill="black"/>
  <path d="M112.643 12C112.943 12 113.143 11.8 113.143 11.5C113.143 11.2 112.943 11 112.643 11C112.343 11 112.143 11.2 112.143 11.5C112.143 11.8 112.343 12 112.643 12Z" fill="black"/>
  <path d="M108.143 13C107.843 13 107.643 13.2 107.643 13.5C107.643 13.8 107.843 14 108.143 14C108.443 14 108.643 13.8 108.643 13.5C108.643 13.2 108.443 13 108.143 13Z" fill="black"/>
  <path d="M105.893 12C106.193 12 106.393 11.8 106.393 11.5C106.393 11.2 106.193 11 105.893 11C105.593 11 105.393 11.2 105.393 11.5C105.393 11.8 105.593 12 105.893 12Z" fill="black"/>
  <path d="M105.893 13C105.593 13 105.393 13.2 105.393 13.5C105.393 13.8 105.593 14 105.893 14C106.193 14 106.393 13.8 106.393 13.5C106.393 13.2 106.193 13 105.893 13Z" fill="black"/>
  <path d="M110.393 13C110.093 13 109.893 13.2 109.893 13.5C109.893 13.8 110.093 14 110.393 14C110.693 14 110.893 13.8 110.893 13.5C110.893 13.2 110.693 13 110.393 13Z" fill="black"/>
  <path d="M112.643 13C112.343 13 112.143 13.2 112.143 13.5C112.143 13.8 112.343 14 112.643 14C112.943 14 113.143 13.8 113.143 13.5C113.143 13.2 112.943 13 112.643 13Z" fill="black"/>
  <path d="M114.893 12C115.193 12 115.393 11.8 115.393 11.5C115.393 11.2 115.193 11 114.893 11C114.593 11 114.393 11.2 114.393 11.5C114.393 11.8 114.593 12 114.893 12Z" fill="black"/>
  <path d="M114.893 13C114.593 13 114.393 13.2 114.393 13.5C114.393 13.8 114.593 14 114.893 14C115.193 14 115.393 13.8 115.393 13.5C115.393 13.2 115.193 13 114.893 13Z" fill="black"/>
  <path d="M137.693 4.3H122.993C122.693 4.3 122.393 4.5 122.393 4.8C122.393 5.1 122.693 5.4 122.993 5.4H124.693V17.4C124.693 17.7 124.993 18 125.293 18H135.493C135.793 18 136.093 17.7 136.093 17.4V5.4H137.793C138.093 5.4 138.393 5.1 138.393 4.8C138.393 4.5 137.993 4.3 137.693 4.3ZM134.893 16.8H125.793V5.4H134.893V16.8Z" fill="black"/>
  <path d="M128.593 3.2H131.993C132.293 3.2 132.593 2.9 132.593 2.6C132.593 2.3 132.393 2 132.093 2H128.593C128.293 2 128.093 2.3 128.093 2.6C128.093 2.9 128.293 3.2 128.593 3.2Z" fill="black"/>
  <path d="M128.593 14C128.893 14 129.193 13.7 129.193 13.4V7.7C129.193 7.4 128.893 7.1 128.593 7.1C128.293 7.1 127.993 7.4 127.993 7.7V13.4C128.093 13.7 128.293 14 128.593 14Z" fill="black"/>
  <path d="M132.093 14C132.393 14 132.693 13.7 132.693 13.4V7.7C132.693 7.4 132.393 7.1 132.093 7.1C131.793 7.1 131.493 7.5 131.493 7.7V13.4C131.493 13.7 131.693 14 132.093 14Z" fill="black"/>
  <path d="M157.393 4.29231L156.101 3L150.393 8.70769L144.685 3L143.393 4.29231L149.101 10L143.393 15.7077L144.685 17L150.393 11.2923L156.101 17L157.393 15.7077L151.685 10L157.393 4.29231Z" fill="black"/>
  <path fill-rule="evenodd" clip-rule="evenodd" d="M164.612 7.34467C164.905 7.05178 165.38 7.05178 165.673 7.34467L170.393 12.0643L175.112 7.34467C175.405 7.05178 175.88 7.05178 176.173 7.34467C176.466 7.63756 176.466 8.11244 176.173 8.40533L170.923 13.6553C170.63 13.9482 170.155 13.9482 169.862 13.6553L164.612 8.40533C164.32 8.11244 164.32 7.63756 164.612 7.34467Z" fill="black"/>
  <path d="M190.393 3L184.393 8.80006V15.0001H196.393V8.80006L190.393 3ZM195.393 14.0001H185.393V9.20005L190.393 4.4L195.393 9.20005V14.0001Z" fill="black"/>
  <path d="M188.393 13.0001H189.393V10.5001H191.393V13.0001H192.393V9.50005H188.393V13.0001Z" fill="black"/>
  <path d="M210.393 1L212.493 7.5H219.393L213.793 11.5L215.993 18L210.393 14L204.793 18L206.993 11.5L201.393 7.5H208.293L210.393 1Z" fill="black"/>
  <path fill-rule="evenodd" clip-rule="evenodd" d="M229.393 4H231.393V6H229.393V4ZM231.393 16H229.393V7H231.393V16Z" fill="black"/>
</svg>
