<svg width="60" height="20" viewBox="0 0 60 20" fill="none" xmlns="http://www.w3.org/2000/svg">
<path d="M4 3H2V5H4V3Z" fill="black"/>
<path d="M18 3H6V5H18V3Z" fill="black"/>
<path d="M4 7H2V9H4V7Z" fill="black"/>
<path d="M18 7H6V9H18V7Z" fill="black"/>
<path d="M4 11H2V13H4V11Z" fill="black"/>
<path d="M18 11H6V13H18V11Z" fill="black"/>
<path d="M4 15H2V17H4V15Z" fill="black"/>
<path d="M18 15H6V17H18V15Z" fill="black"/>
<path d="M38 15H22V17H38V15Z" fill="black"/>
<path d="M36 5V11H24V5H36ZM38 3H22V13H38V3Z" fill="black"/>
<path d="M46 3H42V9H46V3Z" fill="black"/>
<path d="M58 3H54V9H58V3Z" fill="black"/>
<path d="M52 3H48V9H52V3Z" fill="black"/>
<path d="M46 11H42V17H46V11Z" fill="black"/>
<path d="M58 11H54V17H58V11Z" fill="black"/>
<path d="M52 11H48V17H52V11Z" fill="black"/>
</svg>
